<?xml version="1.0" encoding="UTF-8"?>
<svg id="Layer_1" data-name="Layer 1" xmlns="http://www.w3.org/2000/svg" xmlns:xlink="http://www.w3.org/1999/xlink" viewBox="0 0 800 800">
  <defs>
    <style>
      .cls-1 {
        fill: url(#linear-gradient-38);
      }

      .cls-1, .cls-2, .cls-3, .cls-4, .cls-5, .cls-6, .cls-7, .cls-8, .cls-9, .cls-10, .cls-11, .cls-12, .cls-13, .cls-14, .cls-15, .cls-16, .cls-17, .cls-18, .cls-19, .cls-20, .cls-21, .cls-22, .cls-23, .cls-24, .cls-25, .cls-26, .cls-27, .cls-28, .cls-29, .cls-30, .cls-31, .cls-32, .cls-33, .cls-34, .cls-35, .cls-36, .cls-37, .cls-38, .cls-39, .cls-40, .cls-41, .cls-42, .cls-43, .cls-44, .cls-45, .cls-46, .cls-47, .cls-48, .cls-49, .cls-50, .cls-51, .cls-52, .cls-53, .cls-54, .cls-55, .cls-56, .cls-57, .cls-58, .cls-59, .cls-60, .cls-61, .cls-62, .cls-63, .cls-64 {
        stroke-width: 0px;
      }

      .cls-2 {
        fill: url(#linear-gradient-12);
      }

      .cls-65 {
        stroke: url(#linear-gradient-28);
      }

      .cls-65, .cls-66, .cls-67, .cls-68, .cls-69, .cls-70 {
        fill: none;
        stroke-miterlimit: 10;
      }

      .cls-3 {
        fill: url(#linear-gradient-17);
      }

      .cls-4 {
        fill: url(#radial-gradient-16);
      }

      .cls-5 {
        fill: url(#linear-gradient-19);
      }

      .cls-6 {
        fill: url(#linear-gradient-33);
      }

      .cls-7 {
        fill: url(#linear-gradient-21);
      }

      .cls-8 {
        fill: url(#linear-gradient-6);
      }

      .cls-66 {
        stroke: #fff;
      }

      .cls-9 {
        fill: url(#radial-gradient-8);
      }

      .cls-10 {
        fill: url(#linear-gradient-42);
      }

      .cls-11 {
        fill: url(#linear-gradient-15);
      }

      .cls-12 {
        fill: url(#radial-gradient-13);
      }

      .cls-13 {
        fill: url(#radial-gradient-12);
      }

      .cls-14 {
        fill: url(#linear-gradient-11);
      }

      .cls-15 {
        fill: url(#linear-gradient-5);
      }

      .cls-67 {
        stroke: url(#linear-gradient-29);
      }

      .cls-16 {
        fill: url(#linear-gradient-31);
      }

      .cls-17 {
        fill: url(#linear-gradient-34);
      }

      .cls-18 {
        fill: url(#linear-gradient-41);
      }

      .cls-68 {
        stroke: url(#linear-gradient-30);
      }

      .cls-19 {
        fill: url(#linear-gradient-40);
      }

      .cls-20 {
        fill: url(#linear-gradient-13);
      }

      .cls-21 {
        fill: url(#linear-gradient-23);
      }

      .cls-22 {
        fill: url(#radial-gradient-22);
      }

      .cls-23 {
        fill: url(#linear-gradient-25);
      }

      .cls-24 {
        fill: url(#linear-gradient-43);
      }

      .cls-25 {
        fill: url(#linear-gradient-16);
      }

      .cls-26 {
        fill: url(#linear-gradient-22);
      }

      .cls-27 {
        fill: url(#radial-gradient-19);
      }

      .cls-28 {
        fill: url(#radial-gradient-20);
      }

      .cls-29 {
        fill: #fff;
      }

      .cls-30 {
        fill: url(#linear-gradient-35);
      }

      .cls-31 {
        fill: url(#linear-gradient-32);
      }

      .cls-32 {
        fill: url(#linear-gradient-20);
      }

      .cls-33 {
        fill: url(#linear-gradient-14);
      }

      .cls-34 {
        fill: url(#linear-gradient-2);
      }

      .cls-35 {
        fill: url(#radial-gradient-17);
      }

      .cls-36 {
        fill: url(#radial-gradient-21);
      }

      .cls-37 {
        fill: url(#linear-gradient-7);
      }

      .cls-38 {
        fill: url(#radial-gradient-2);
      }

      .cls-39 {
        fill: url(#linear-gradient-39);
      }

      .cls-40 {
        fill: url(#radial-gradient-7);
      }

      .cls-41 {
        fill: url(#linear-gradient-3);
      }

      .cls-42 {
        fill: url(#radial-gradient-5);
      }

      .cls-43 {
        fill: url(#radial-gradient-24);
      }

      .cls-44 {
        fill: url(#linear-gradient-9);
      }

      .cls-45 {
        fill: url(#radial-gradient);
      }

      .cls-69 {
        stroke: url(#linear-gradient);
      }

      .cls-46 {
        fill: #5f5ba7;
      }

      .cls-47 {
        fill: url(#linear-gradient-36);
      }

      .cls-48 {
        fill: url(#radial-gradient-14);
      }

      .cls-49 {
        fill: url(#linear-gradient-8);
      }

      .cls-50 {
        fill: url(#radial-gradient-18);
      }

      .cls-51 {
        fill: url(#radial-gradient-10);
      }

      .cls-52 {
        fill: url(#linear-gradient-24);
      }

      .cls-53 {
        fill: url(#linear-gradient-26);
      }

      .cls-54 {
        fill: url(#linear-gradient-18);
      }

      .cls-70 {
        stroke: url(#linear-gradient-27);
      }

      .cls-55 {
        fill: url(#radial-gradient-6);
      }

      .cls-56 {
        fill: url(#linear-gradient-10);
      }

      .cls-57 {
        fill: url(#radial-gradient-15);
      }

      .cls-58 {
        fill: url(#radial-gradient-9);
      }

      .cls-59 {
        fill: url(#radial-gradient-3);
      }

      .cls-60 {
        fill: url(#radial-gradient-11);
      }

      .cls-61 {
        fill: url(#linear-gradient-4);
      }

      .cls-62 {
        fill: url(#linear-gradient-37);
      }

      .cls-63 {
        fill: url(#radial-gradient-4);
      }

      .cls-64 {
        fill: url(#radial-gradient-23);
      }
    </style>
    <linearGradient id="linear-gradient" x1="477.88" y1="438.1" x2="499.45" y2="438.1" gradientUnits="userSpaceOnUse">
      <stop offset="0" stop-color="#5f5ba7"/>
      <stop offset="1" stop-color="#0eaee5"/>
    </linearGradient>
    <linearGradient id="linear-gradient-2" x1="520.55" y1="485.25" x2="520.55" y2="234.15" xlink:href="#linear-gradient"/>
    <linearGradient id="linear-gradient-3" x1="585.89" y1="258.27" x2="585.89" y2="248.01" xlink:href="#linear-gradient"/>
    <linearGradient id="linear-gradient-4" x1="547.84" y1="232.91" x2="547.84" y2="222.65" xlink:href="#linear-gradient"/>
    <linearGradient id="linear-gradient-5" x1="521.98" y1="232" x2="521.98" y2="221.73" xlink:href="#linear-gradient"/>
    <linearGradient id="linear-gradient-6" x1="472.54" y1="257.11" x2="472.54" y2="246.85" xlink:href="#linear-gradient"/>
    <linearGradient id="linear-gradient-7" x1="434.38" y1="283.29" x2="434.38" y2="273.02" xlink:href="#linear-gradient"/>
    <linearGradient id="linear-gradient-8" x1="603.13" y1="272.27" x2="603.13" y2="262.01" xlink:href="#linear-gradient"/>
    <linearGradient id="linear-gradient-9" x1="458.03" y1="435.16" x2="458.03" y2="353.29" xlink:href="#linear-gradient"/>
    <linearGradient id="linear-gradient-10" x1="430.28" y1="303.94" x2="430.28" y2="293.68" xlink:href="#linear-gradient"/>
    <linearGradient id="linear-gradient-11" x1="418.73" y1="324.83" x2="418.73" y2="314.57" xlink:href="#linear-gradient"/>
    <linearGradient id="linear-gradient-12" x1="415.16" y1="410.39" x2="415.16" y2="400.13" xlink:href="#linear-gradient"/>
    <linearGradient id="linear-gradient-13" x1="435.15" y1="429.46" x2="435.15" y2="419.19" xlink:href="#linear-gradient"/>
    <linearGradient id="linear-gradient-14" x1="412.05" y1="353.99" x2="412.05" y2="343.73" xlink:href="#linear-gradient"/>
    <linearGradient id="linear-gradient-15" x1="473.06" y1="454.28" x2="473.06" y2="304.08" xlink:href="#linear-gradient"/>
    <linearGradient id="linear-gradient-16" x1="462.84" y1="477.85" x2="462.84" y2="326.38" xlink:href="#linear-gradient"/>
    <linearGradient id="linear-gradient-17" x1="451.44" y1="428.84" x2="451.44" y2="380.52" xlink:href="#linear-gradient"/>
    <linearGradient id="linear-gradient-18" x1="450.95" y1="268.48" x2="450.95" y2="258.21" xlink:href="#linear-gradient"/>
    <linearGradient id="linear-gradient-19" x1="472.32" y1="322.81" x2="472.32" y2="312.54" xlink:href="#linear-gradient"/>
    <linearGradient id="linear-gradient-20" x1="464.06" y1="353.34" x2="464.06" y2="343.07" xlink:href="#linear-gradient"/>
    <linearGradient id="linear-gradient-21" x1="543.81" y1="368.86" x2="543.81" y2="358.6" xlink:href="#linear-gradient"/>
    <linearGradient id="linear-gradient-22" x1="557.4" y1="388.83" x2="557.4" y2="378.56" xlink:href="#linear-gradient"/>
    <linearGradient id="linear-gradient-23" x1="563.03" y1="409.61" x2="563.03" y2="399.34" xlink:href="#linear-gradient"/>
    <linearGradient id="linear-gradient-24" x1="560.58" y1="426.82" x2="560.58" y2="416.55" xlink:href="#linear-gradient"/>
    <linearGradient id="linear-gradient-25" x1="425.84" y1="349.1" x2="425.84" y2="338.83" xlink:href="#linear-gradient"/>
    <linearGradient id="linear-gradient-26" x1="417.58" y1="381.22" x2="417.58" y2="370.96" xlink:href="#linear-gradient"/>
    <linearGradient id="linear-gradient-27" x1="530.22" y1="385.49" x2="530.22" y2="368.58" xlink:href="#linear-gradient"/>
    <linearGradient id="linear-gradient-28" x1="535.58" y1="401.69" x2="535.58" y2="383.2" xlink:href="#linear-gradient"/>
    <linearGradient id="linear-gradient-29" x1="538.78" y1="452.28" x2="538.78" y2="426.46" xlink:href="#linear-gradient"/>
    <linearGradient id="linear-gradient-30" x1="538.45" y1="423.9" x2="538.45" y2="403.98" xlink:href="#linear-gradient"/>
    <linearGradient id="linear-gradient-31" x1="509.71" y1="504.81" x2="509.71" y2="448.53" xlink:href="#linear-gradient"/>
    <linearGradient id="linear-gradient-32" x1="550.15" y1="504.81" x2="550.15" y2="448.53" xlink:href="#linear-gradient"/>
    <linearGradient id="linear-gradient-33" x1="143.87" y1="504.69" x2="143.87" y2="462.85" xlink:href="#linear-gradient"/>
    <linearGradient id="linear-gradient-34" x1="188.82" y1="504.81" x2="188.82" y2="462.73" xlink:href="#linear-gradient"/>
    <linearGradient id="linear-gradient-35" x1="233.27" y1="504.4" x2="233.27" y2="463.32" xlink:href="#linear-gradient"/>
    <linearGradient id="linear-gradient-36" x1="269.29" y1="504.4" x2="269.29" y2="463.32" xlink:href="#linear-gradient"/>
    <linearGradient id="linear-gradient-37" x1="307.09" y1="504.81" x2="307.09" y2="462.73" xlink:href="#linear-gradient"/>
    <linearGradient id="linear-gradient-38" x1="344.64" y1="504.4" x2="344.64" y2="463.32" xlink:href="#linear-gradient"/>
    <linearGradient id="linear-gradient-39" x1="379.72" y1="504.81" x2="379.72" y2="462.73" xlink:href="#linear-gradient"/>
    <linearGradient id="linear-gradient-40" x1="424.37" y1="504.69" x2="424.37" y2="462.85" xlink:href="#linear-gradient"/>
    <linearGradient id="linear-gradient-41" x1="465.66" y1="504.4" x2="465.66" y2="463.32" xlink:href="#linear-gradient"/>
    <radialGradient id="radial-gradient" cx="1897.59" cy="14465.68" fx="1897.59" fy="14465.68" r="1.63" gradientTransform="translate(12117.64 9240.7) rotate(135)" gradientUnits="userSpaceOnUse">
      <stop offset="0" stop-color="#a2864b"/>
      <stop offset="1" stop-color="#9f8449"/>
    </radialGradient>
    <radialGradient id="radial-gradient-2" cx="1919.13" cy="14465.68" fx="1919.13" fy="14465.68" r="1.63" xlink:href="#radial-gradient"/>
    <radialGradient id="radial-gradient-3" cx="1914.82" cy="14465.68" fx="1914.82" fy="14465.68" xlink:href="#radial-gradient"/>
    <radialGradient id="radial-gradient-4" cx="1910.52" cy="14465.68" fx="1910.52" fy="14465.68" r="1.63" xlink:href="#radial-gradient"/>
    <radialGradient id="radial-gradient-5" cx="1906.21" cy="14465.68" fx="1906.21" fy="14465.68" r="1.63" xlink:href="#radial-gradient"/>
    <radialGradient id="radial-gradient-6" cx="1901.9" cy="14465.68" fx="1901.9" fy="14465.68" r="1.63" xlink:href="#radial-gradient"/>
    <radialGradient id="radial-gradient-7" cx="-3052.41" cy="3580.91" fx="-3052.41" fy="3580.91" r="1.63" gradientTransform="translate(5222.32 -55.77) rotate(45)" xlink:href="#radial-gradient"/>
    <radialGradient id="radial-gradient-8" cx="-3030.86" cy="3580.91" fx="-3030.86" fy="3580.91" r="1.63" gradientTransform="translate(5222.32 -55.77) rotate(45)" xlink:href="#radial-gradient"/>
    <radialGradient id="radial-gradient-9" cx="-3035.17" cy="3580.91" fx="-3035.17" fy="3580.91" r="1.63" gradientTransform="translate(5222.32 -55.77) rotate(45)" xlink:href="#radial-gradient"/>
    <radialGradient id="radial-gradient-10" cx="-3039.48" cy="3580.91" fx="-3039.48" fy="3580.91" r="1.63" gradientTransform="translate(5222.32 -55.77) rotate(45)" xlink:href="#radial-gradient"/>
    <radialGradient id="radial-gradient-11" cx="-3043.79" cy="3580.91" fx="-3043.79" fy="3580.91" r="1.63" gradientTransform="translate(5222.32 -55.77) rotate(45)" xlink:href="#radial-gradient"/>
    <radialGradient id="radial-gradient-12" cx="-3048.1" cy="3580.91" fx="-3048.1" fy="3580.91" r="1.63" gradientTransform="translate(5222.32 -55.77) rotate(45)" xlink:href="#radial-gradient"/>
    <radialGradient id="radial-gradient-13" cx="-3052.41" cy="3631.56" fx="-3052.41" fy="3631.56" r="1.63" gradientTransform="translate(5222.32 -55.77) rotate(45)" xlink:href="#radial-gradient"/>
    <radialGradient id="radial-gradient-14" cx="-3030.86" cy="3631.56" fx="-3030.86" fy="3631.56" r="1.63" gradientTransform="translate(5222.32 -55.77) rotate(45)" xlink:href="#radial-gradient"/>
    <radialGradient id="radial-gradient-15" cx="-3035.17" cy="3631.56" fx="-3035.17" fy="3631.56" r="1.63" gradientTransform="translate(5222.32 -55.77) rotate(45)" xlink:href="#radial-gradient"/>
    <radialGradient id="radial-gradient-16" cx="-3039.48" cy="3631.56" fx="-3039.48" fy="3631.56" gradientTransform="translate(5222.32 -55.77) rotate(45)" xlink:href="#radial-gradient"/>
    <radialGradient id="radial-gradient-17" cx="-3043.79" cy="3631.56" fx="-3043.79" fy="3631.56" r="1.63" gradientTransform="translate(5222.32 -55.77) rotate(45)" xlink:href="#radial-gradient"/>
    <radialGradient id="radial-gradient-18" cx="-3048.1" cy="3631.56" fx="-3048.1" fy="3631.56" r="1.63" gradientTransform="translate(5222.32 -55.77) rotate(45)" xlink:href="#radial-gradient"/>
    <radialGradient id="radial-gradient-19" cx="1897.59" cy="14516.28" fx="1897.59" fy="14516.28" xlink:href="#radial-gradient"/>
    <radialGradient id="radial-gradient-20" cx="1919.13" cy="14516.28" fx="1919.13" fy="14516.28" r="1.63" xlink:href="#radial-gradient"/>
    <radialGradient id="radial-gradient-21" cx="1914.82" cy="14516.28" fx="1914.82" fy="14516.28" r="1.63" xlink:href="#radial-gradient"/>
    <radialGradient id="radial-gradient-22" cx="1910.52" cy="14516.28" fx="1910.52" fy="14516.28" r="1.63" xlink:href="#radial-gradient"/>
    <radialGradient id="radial-gradient-23" cx="1906.21" cy="14516.28" fx="1906.21" fy="14516.28" r="1.63" xlink:href="#radial-gradient"/>
    <radialGradient id="radial-gradient-24" cx="1901.9" cy="14516.28" fx="1901.9" fy="14516.28" xlink:href="#radial-gradient"/>
    <linearGradient id="linear-gradient-42" x1="1887.2" y1="14490.96" x2="1929.52" y2="14490.96" gradientTransform="translate(12117.64 9240.7) rotate(135)" gradientUnits="userSpaceOnUse">
      <stop offset="0" stop-color="#cbb42e"/>
      <stop offset="1" stop-color="#cbb42e"/>
    </linearGradient>
    <linearGradient id="linear-gradient-43" x1="599.56" y1="603.97" x2="599.56" y2="202.03" gradientTransform="translate(-38.29 62.31) rotate(-5.48)" gradientUnits="userSpaceOnUse">
      <stop offset="0" stop-color="#5b46f5"/>
      <stop offset="1" stop-color="#00c6e0"/>
    </linearGradient>
  </defs>
  <g>
    <path class="cls-46" d="m126.05,525.58v5.64h6.27v1.81h-6.27v5.81h7.02v1.81h-9.26v-16.89h9.26v1.81h-7.02Z"/>
    <path class="cls-46" d="m143.71,540.66l-3.21-4.94-3.09,4.94h-2.35l4.37-6.58-4.37-6.68h2.54l3.21,4.91,3.06-4.91h2.35l-4.35,6.56,4.37,6.7h-2.54Z"/>
    <path class="cls-46" d="m152.89,527.94c.88-.51,1.91-.76,3.08-.76s2.29.28,3.27.85c.98.56,1.75,1.36,2.31,2.38.56,1.02.84,2.21.84,3.57s-.28,2.53-.84,3.58c-.56,1.05-1.33,1.86-2.31,2.44-.98.58-2.07.87-3.27.87s-2.17-.25-3.05-.76c-.88-.51-1.55-1.14-2.01-1.9v8.73h-2.25v-19.55h2.25v2.44c.45-.76,1.11-1.39,1.99-1.9Zm6.58,3.42c-.41-.74-.97-1.31-1.67-1.69-.7-.39-1.47-.58-2.31-.58s-1.59.2-2.29.59c-.7.4-1.26.97-1.68,1.72-.42.75-.63,1.62-.63,2.6s.21,1.87.63,2.63c.42.75.98,1.32,1.68,1.72.7.4,1.46.59,2.29.59s1.61-.2,2.31-.59c.7-.4,1.26-.97,1.67-1.72.41-.75.62-1.63.62-2.65s-.21-1.87-.62-2.61Z"/>
    <path class="cls-46" d="m177.8,534.85h-10.82c.08,1.31.54,2.33,1.37,3.06.83.73,1.84,1.1,3.03,1.1.97,0,1.78-.22,2.43-.66.65-.44,1.11-1.04,1.37-1.78h2.42c-.36,1.27-1.09,2.31-2.17,3.11s-2.44,1.2-4.05,1.2c-1.28,0-2.43-.28-3.45-.85-1.01-.57-1.81-1.37-2.38-2.41-.58-1.04-.87-2.25-.87-3.62s.28-2.57.84-3.6,1.35-1.83,2.36-2.38,2.18-.83,3.5-.83,2.42.27,3.41.82c.99.55,1.75,1.3,2.29,2.26.53.96.8,2.04.8,3.25,0,.42-.03.86-.07,1.33Zm-2.82-3.96c-.38-.6-.89-1.06-1.54-1.38-.65-.31-1.37-.47-2.16-.47-1.14,0-2.1.35-2.9,1.06-.8.71-1.26,1.69-1.37,2.95h8.55c0-.84-.19-1.56-.57-2.17Z"/>
    <path class="cls-46" d="m184.95,527.79c.73-.42,1.63-.63,2.68-.63v2.27h-.59c-2.52,0-3.78,1.34-3.78,4.02v7.21h-2.25v-13.26h2.25v2.15c.4-.76.96-1.35,1.69-1.77Z"/>
    <path class="cls-46" d="m190.47,524.81c-.3-.29-.44-.64-.44-1.06s.15-.77.44-1.07.66-.44,1.09-.44.76.15,1.05.44.43.64.43,1.07-.14.77-.43,1.06c-.29.29-.64.44-1.05.44s-.79-.15-1.09-.44Zm2.17,2.59v13.26h-2.25v-13.26h2.25Z"/>
    <path class="cls-46" d="m208.93,534.85h-10.82c.08,1.31.54,2.33,1.37,3.06.83.73,1.84,1.1,3.03,1.1.97,0,1.78-.22,2.43-.66.65-.44,1.11-1.04,1.37-1.78h2.42c-.36,1.27-1.09,2.31-2.17,3.11s-2.44,1.2-4.05,1.2c-1.28,0-2.43-.28-3.45-.85-1.01-.57-1.81-1.37-2.38-2.41-.58-1.04-.87-2.25-.87-3.62s.28-2.57.84-3.6c.56-1.03,1.35-1.83,2.36-2.38,1.01-.56,2.18-.83,3.5-.83s2.42.27,3.41.82c.99.55,1.75,1.3,2.29,2.26.53.96.8,2.04.8,3.25,0,.42-.03.86-.07,1.33Zm-2.82-3.96c-.38-.6-.89-1.06-1.54-1.38-.65-.31-1.37-.47-2.16-.47-1.14,0-2.1.35-2.9,1.06-.8.71-1.26,1.69-1.37,2.95h8.55c0-.84-.19-1.56-.57-2.17Z"/>
    <path class="cls-46" d="m222.74,528.62c1.02.98,1.53,2.38,1.53,4.22v7.81h-2.22v-7.5c0-1.32-.34-2.33-1.01-3.04-.68-.7-1.6-1.05-2.77-1.05s-2.13.36-2.83,1.09-1.05,1.78-1.05,3.17v7.33h-2.25v-13.26h2.25v1.89c.45-.68,1.05-1.2,1.82-1.57.77-.37,1.61-.56,2.53-.56,1.65,0,2.98.49,4,1.46Z"/>
    <path class="cls-46" d="m228.12,530.41c.56-1.02,1.34-1.82,2.33-2.38,1-.56,2.14-.85,3.42-.85,1.66,0,3.03.4,4.11,1.19,1.08.79,1.79,1.89,2.14,3.29h-2.42c-.23-.81-.68-1.44-1.35-1.91-.67-.47-1.5-.7-2.48-.7-1.28,0-2.32.43-3.11,1.29-.79.86-1.19,2.09-1.19,3.67s.4,2.83,1.19,3.7c.79.87,1.83,1.31,3.11,1.31.99,0,1.81-.22,2.47-.68.66-.45,1.11-1.1,1.36-1.94h2.42c-.36,1.35-1.09,2.44-2.17,3.25-1.09.81-2.45,1.22-4.08,1.22-1.28,0-2.43-.28-3.42-.85-1-.57-1.77-1.36-2.33-2.4-.56-1.03-.84-2.24-.84-3.63s.28-2.57.84-3.59Z"/>
    <path class="cls-46" d="m255.57,534.85h-10.82c.08,1.31.54,2.33,1.37,3.06.83.73,1.84,1.1,3.03,1.1.97,0,1.78-.22,2.43-.66.65-.44,1.11-1.04,1.37-1.78h2.42c-.36,1.27-1.09,2.31-2.17,3.11s-2.44,1.2-4.05,1.2c-1.28,0-2.43-.28-3.45-.85-1.01-.57-1.81-1.37-2.38-2.41-.58-1.04-.87-2.25-.87-3.62s.28-2.57.84-3.6c.56-1.03,1.35-1.83,2.36-2.38,1.01-.56,2.18-.83,3.5-.83s2.42.27,3.41.82c.99.55,1.75,1.3,2.29,2.26.53.96.8,2.04.8,3.25,0,.42-.03.86-.07,1.33Zm-2.82-3.96c-.38-.6-.89-1.06-1.54-1.38-.65-.31-1.37-.47-2.16-.47-1.14,0-2.1.35-2.9,1.06-.8.71-1.26,1.69-1.37,2.95h8.55c0-.84-.19-1.56-.57-2.17Z"/>
    <path class="cls-46" d="m275.72,536.91h-7.51l-1.38,3.75h-2.37l6.23-16.77h2.59l6.2,16.77h-2.37l-1.38-3.75Zm-.64-1.79l-3.11-8.52-3.11,8.52h6.22Z"/>
    <path class="cls-46" d="m299.38,524.82c1.37.69,2.43,1.67,3.16,2.94.73,1.27,1.1,2.77,1.1,4.5s-.37,3.22-1.1,4.49c-.73,1.27-1.79,2.23-3.16,2.9-1.37.67-3,1-4.88,1h-5.36v-16.86h5.36c1.88,0,3.5.34,4.88,1.03Zm.21,12.29c1.17-1.15,1.75-2.77,1.75-4.85s-.59-3.73-1.77-4.91c-1.18-1.18-2.87-1.77-5.08-1.77h-3.11v13.26h3.11c2.22,0,3.92-.58,5.09-1.73Z"/>
    <path class="cls-46" d="m306.85,524.81c-.3-.29-.44-.64-.44-1.06s.15-.77.44-1.07.66-.44,1.09-.44.76.15,1.05.44c.29.29.43.64.43,1.07s-.14.77-.43,1.06-.64.44-1.05.44-.79-.15-1.09-.44Zm2.17,2.59v13.26h-2.25v-13.26h2.25Z"/>
    <path class="cls-46" d="m318.53,529.21h-2.84v11.44h-2.25v-11.44h-1.75v-1.81h1.75v-.94c0-1.48.39-2.57,1.17-3.25s2.04-1.03,3.77-1.03v1.84c-.99,0-1.68.19-2.09.57-.4.38-.61,1.01-.61,1.88v.94h2.84v1.81Z"/>
    <path class="cls-46" d="m326.83,529.21h-2.84v11.44h-2.25v-11.44h-1.75v-1.81h1.75v-.94c0-1.48.39-2.57,1.17-3.25.78-.69,2.04-1.03,3.77-1.03v1.84c-.99,0-1.68.19-2.09.57-.4.38-.61,1.01-.61,1.88v.94h2.84v1.81Z"/>
    <path class="cls-46" d="m341.9,534.85h-10.82c.08,1.31.54,2.33,1.37,3.06.83.73,1.84,1.1,3.03,1.1.97,0,1.78-.22,2.43-.66.65-.44,1.11-1.04,1.37-1.78h2.42c-.36,1.27-1.09,2.31-2.17,3.11-1.09.8-2.44,1.2-4.05,1.2-1.28,0-2.43-.28-3.45-.85-1.01-.57-1.81-1.37-2.38-2.41-.58-1.04-.87-2.25-.87-3.62s.28-2.57.84-3.6c.56-1.03,1.35-1.83,2.36-2.38,1.01-.56,2.18-.83,3.5-.83s2.42.27,3.41.82c.99.55,1.75,1.3,2.29,2.26.53.96.8,2.04.8,3.25,0,.42-.03.86-.07,1.33Zm-2.82-3.96c-.38-.6-.89-1.06-1.54-1.38-.65-.31-1.37-.47-2.16-.47-1.14,0-2.1.35-2.9,1.06-.8.71-1.26,1.69-1.37,2.95h8.55c0-.84-.19-1.56-.57-2.17Z"/>
    <path class="cls-46" d="m349.06,527.79c.73-.42,1.63-.63,2.68-.63v2.27h-.59c-2.52,0-3.78,1.34-3.78,4.02v7.21h-2.25v-13.26h2.25v2.15c.4-.76.96-1.35,1.69-1.77Z"/>
    <path class="cls-46" d="m366.78,534.85h-10.82c.08,1.31.54,2.33,1.37,3.06.83.73,1.84,1.1,3.03,1.1.97,0,1.78-.22,2.43-.66.65-.44,1.11-1.04,1.37-1.78h2.42c-.36,1.27-1.09,2.31-2.17,3.11-1.09.8-2.44,1.2-4.05,1.2-1.28,0-2.43-.28-3.45-.85-1.01-.57-1.81-1.37-2.38-2.41-.58-1.04-.87-2.25-.87-3.62s.28-2.57.84-3.6c.56-1.03,1.35-1.83,2.36-2.38s2.18-.83,3.5-.83,2.42.27,3.41.82c.99.55,1.75,1.3,2.29,2.26.53.96.8,2.04.8,3.25,0,.42-.03.86-.07,1.33Zm-2.82-3.96c-.38-.6-.89-1.06-1.54-1.38-.65-.31-1.37-.47-2.16-.47-1.14,0-2.1.35-2.9,1.06-.8.71-1.26,1.69-1.37,2.95h8.55c0-.84-.19-1.56-.57-2.17Z"/>
    <path class="cls-46" d="m380.59,528.62c1.02.98,1.53,2.38,1.53,4.22v7.81h-2.22v-7.5c0-1.32-.34-2.33-1.01-3.04-.68-.7-1.6-1.05-2.77-1.05s-2.13.36-2.83,1.09c-.7.73-1.05,1.78-1.05,3.17v7.33h-2.25v-13.26h2.25v1.89c.45-.68,1.05-1.2,1.82-1.57s1.61-.56,2.53-.56c1.65,0,2.98.49,4,1.46Z"/>
    <path class="cls-46" d="m388.72,529.21v7.81c0,.65.14,1.1.42,1.37.28.27.76.4,1.46.4h1.66v1.86h-2.03c-1.25,0-2.19-.28-2.82-.85-.63-.56-.94-1.49-.94-2.78v-7.81h-1.75v-1.81h1.75v-3.34h2.25v3.34h3.53v1.81h-3.53Z"/>
    <path class="cls-46" d="m423.55,523.79l-4.99,16.86h-2.52l-4-13.57-4.15,13.57-2.49.02-4.82-16.89h2.4l3.75,14.3,4.15-14.3h2.52l3.95,14.25,3.78-14.25h2.42Z"/>
    <path class="cls-46" d="m428.65,540.03c-1.03-.57-1.84-1.37-2.42-2.41-.58-1.04-.88-2.25-.88-3.62s.3-2.55.9-3.59c.6-1.04,1.42-1.84,2.46-2.4s2.2-.83,3.48-.83,2.45.28,3.48.83,1.86,1.35,2.46,2.38c.6,1.03.9,2.23.9,3.6s-.31,2.58-.93,3.62c-.62,1.04-1.45,1.84-2.51,2.41-1.05.56-2.22.85-3.51.85s-2.42-.28-3.45-.85Zm5.72-1.65c.71-.37,1.28-.93,1.72-1.67.44-.74.65-1.64.65-2.71s-.21-1.97-.64-2.71c-.43-.74-.99-1.29-1.68-1.66-.69-.36-1.44-.54-2.25-.54s-1.58.18-2.26.54c-.68.36-1.23.92-1.64,1.66-.41.74-.62,1.64-.62,2.71s.2,1.99.6,2.73c.4.74.94,1.29,1.62,1.66.68.36,1.42.54,2.22.54s1.56-.19,2.27-.56Z"/>
    <path class="cls-46" d="m446.11,527.79c.73-.42,1.63-.63,2.68-.63v2.27h-.59c-2.52,0-3.78,1.34-3.78,4.02v7.21h-2.25v-13.26h2.25v2.15c.4-.76.96-1.35,1.69-1.77Z"/>
    <path class="cls-46" d="m453.81,522.75v17.9h-2.25v-17.9h2.25Z"/>
    <path class="cls-46" d="m457.81,530.41c.56-1.02,1.33-1.82,2.31-2.38.98-.56,2.08-.85,3.3-.85,1.05,0,2.03.24,2.94.71.91.48,1.6,1.1,2.07,1.87v-7.02h2.27v17.9h-2.27v-2.49c-.44.79-1.1,1.44-1.98,1.95-.87.51-1.89.76-3.06.76s-2.29-.29-3.27-.87c-.98-.58-1.75-1.39-2.31-2.44-.56-1.05-.84-2.24-.84-3.58s.28-2.54.84-3.57Zm10,.98c-.41-.74-.97-1.31-1.67-1.71-.7-.4-1.47-.59-2.31-.59s-1.61.19-2.3.58c-.69.39-1.24.95-1.65,1.69-.41.74-.62,1.61-.62,2.61s.21,1.9.62,2.65c.41.75.96,1.32,1.65,1.72.69.4,1.46.59,2.3.59s1.61-.2,2.31-.59c.7-.4,1.26-.97,1.67-1.72.41-.75.62-1.62.62-2.63s-.21-1.87-.62-2.61Z"/>
  </g>
  <g>
    <line class="cls-69" x1="478.23" y1="427.66" x2="499.1" y2="448.53"/>
    <polyline class="cls-34" points="522.83 485.22 522.83 430.76 522.83 368.35 598.22 272.97 597.36 272.11 522.83 366.63 522.83 337.29 580.25 259.64 579.38 258.8 522.59 335.79 522.59 321.31 548.44 276.5 548.44 235.07 547.23 235.07 547.23 275.98 522.59 319.63 522.59 234.15 521.37 234.15 521.37 319.58 497.78 295.99 497.78 251.37 479.83 251.37 479.83 252.59 496.56 252.59 496.56 296.49 521.37 321.3 521.37 335.54 488.19 300.94 456.24 267.77 455.38 268.63 487.32 301.79 488.49 303 474.31 303 448.85 277.55 442.89 277.55 442.89 278.76 448.35 278.76 473.81 304.22 489.65 304.22 521.37 337.29 521.37 348.21 521.37 366.04 477.44 322.11 476.59 322.97 521.37 367.76 521.37 485.25"/>
    <path class="cls-41" d="m585.89,258.27c2.84,0,5.13-2.3,5.13-5.13s-2.3-5.13-5.13-5.13-5.13,2.3-5.13,5.13,2.3,5.13,5.13,5.13Z"/>
    <circle class="cls-61" cx="547.84" cy="227.78" r="5.13"/>
    <circle class="cls-15" cx="521.98" cy="226.86" r="5.13"/>
    <circle class="cls-8" cx="472.54" cy="251.98" r="5.13"/>
    <circle class="cls-37" cx="434.38" cy="278.16" r="5.13"/>
    <circle class="cls-49" cx="603.13" cy="267.14" r="5.13"/>
    <polygon class="cls-44" points="416.49 354.15 498.71 435.16 499.57 434.3 417.34 353.29 416.49 354.15"/>
    <path class="cls-56" d="m435.41,298.81c0-2.84-2.3-5.13-5.13-5.13s-5.13,2.3-5.13,5.13,2.3,5.13,5.13,5.13,5.13-2.3,5.13-5.13Z"/>
    <path class="cls-14" d="m418.73,314.57c-2.84,0-5.13,2.3-5.13,5.13s2.3,5.13,5.13,5.13,5.13-2.3,5.13-5.13-2.3-5.13-5.13-5.13Z"/>
    <circle class="cls-2" cx="415.16" cy="405.26" r="5.13"/>
    <path class="cls-20" d="m435.15,419.19c-2.84,0-5.13,2.3-5.13,5.13s2.3,5.13,5.13,5.13,5.13-2.3,5.13-5.13-2.3-5.13-5.13-5.13Z"/>
    <circle class="cls-33" cx="412.05" cy="348.86" r="5.13"/>
    <path class="cls-11" d="m509.93,454.28s-.02-.02-.03-.02v-77.46l-72.86-72.73-.87.85,72.51,72.37v76.1"/>
    <polygon class="cls-25" points="468.49 353.5 498.75 383.75 498.75 398.55 426.58 326.38 425.72 327.24 498.75 400.27 498.75 416.01 431.13 348.4 430.27 349.25 498.75 417.73 498.75 476.73 498.71 477.84 499.92 477.85 499.97 383.25 469.35 352.64 468.49 353.5"/>
    <polygon class="cls-3" points="445.73 402.79 423.45 380.52 422.6 381.38 445.22 404.01 453.74 404.01 477.36 427.63 455.26 427.63 451.43 423.8 432.28 404.65 423.66 404.65 423.66 405.87 431.78 405.87 449.63 423.72 442.44 423.72 442.44 424.93 450.85 424.93 454.76 428.84 480.29 428.84 454.24 402.79 445.73 402.79"/>
    <circle class="cls-54" cx="450.95" cy="263.34" r="5.13"/>
    <path class="cls-5" d="m477.46,317.68c0-2.84-2.3-5.13-5.13-5.13s-5.13,2.3-5.13,5.13,2.3,5.13,5.13,5.13,5.13-2.3,5.13-5.13Z"/>
    <circle class="cls-32" cx="464.06" cy="348.21" r="5.13"/>
    <circle class="cls-7" cx="543.81" cy="363.73" r="5.13"/>
    <circle class="cls-26" cx="557.4" cy="383.7" r="5.13"/>
    <circle class="cls-21" cx="563.03" cy="404.48" r="5.13"/>
    <circle class="cls-52" cx="560.58" cy="421.68" r="5.13"/>
    <path class="cls-23" d="m425.84,349.1c2.84,0,5.13-2.3,5.13-5.13s-2.3-5.13-5.13-5.13-5.13,2.3-5.13,5.13,2.3,5.13,5.13,5.13Z"/>
    <path class="cls-53" d="m417.58,381.22c2.84,0,5.13-2.3,5.13-5.13s-2.3-5.13-5.13-5.13-5.13,2.3-5.13,5.13,2.3,5.13,5.13,5.13Z"/>
    <line class="cls-70" x1="522.12" y1="385.13" x2="538.32" y2="368.93"/>
    <polyline class="cls-65" points="522.12 401.33 539.76 383.7 549.4 383.7"/>
    <polyline class="cls-67" points="522.12 451.94 538.32 434.3 547.96 434.3 555.45 426.82"/>
    <polyline class="cls-68" points="522.12 423.55 541.19 404.48 555.14 404.48"/>
  </g>
  <circle class="cls-29" cx="509.14" cy="485.49" r="8.14"/>
  <line class="cls-66" x1="597.88" y1="365.95" x2="559.59" y2="365.78"/>
  <polyline class="cls-66" points="611.14 276.9 613.03 318.83 643.52 316.9"/>
  <g>
    <path class="cls-16" d="m520.13,494.87h-21.01l-3.37,9.94h-14.35l20.36-56.28h15.87l20.36,56.28h-14.51l-3.37-9.94Zm-3.53-10.58l-6.97-20.6-6.9,20.6h13.87Z"/>
    <path class="cls-31" d="m557.01,448.53v56.28h-13.71v-56.28h13.71Z"/>
  </g>
  <g>
    <path class="cls-6" d="m126.43,472.94c1.76-3.18,4.2-5.66,7.34-7.43,3.14-1.77,6.7-2.66,10.68-2.66,4.88,0,9.05,1.29,12.52,3.86,3.47,2.57,5.79,6.09,6.96,10.54h-11c-.82-1.72-1.98-3.02-3.48-3.92-1.5-.9-3.21-1.35-5.12-1.35-3.08,0-5.58,1.07-7.49,3.22-1.91,2.15-2.87,5.01-2.87,8.6s.96,6.46,2.87,8.6c1.91,2.15,4.41,3.22,7.49,3.22,1.91,0,3.62-.45,5.12-1.35,1.5-.9,2.66-2.2,3.48-3.92h11c-1.17,4.45-3.49,7.95-6.96,10.51-3.47,2.55-7.65,3.83-12.52,3.83-3.98,0-7.54-.89-10.68-2.66-3.14-1.78-5.59-4.24-7.34-7.4-1.76-3.16-2.63-6.77-2.63-10.83s.88-7.68,2.63-10.86Z"/>
    <path class="cls-17" d="m178.26,502.12c-3.22-1.79-5.77-4.3-7.67-7.52-1.89-3.22-2.84-6.84-2.84-10.85s.95-7.63,2.84-10.83c1.89-3.2,4.45-5.7,7.67-7.49,3.22-1.79,6.76-2.69,10.62-2.69,4.9,0,9.27,1.44,13.13,4.32.81.61,1.57,1.29,2.26,2.04,3.75,4.05,5.62,8.94,5.62,14.65,0,4.02-.94,7.64-2.81,10.85-1.87,3.22-4.41,5.73-7.61,7.52-3.2,1.79-6.73,2.69-10.59,2.69s-7.4-.9-10.62-2.69Zm18.49-9.72c1.97-2.18,2.95-5.07,2.95-8.66s-.99-6.53-2.95-8.69c-1.97-2.17-4.6-3.25-7.87-3.25s-5.96,1.07-7.93,3.22c-1.97,2.15-2.95,5.05-2.95,8.72s.98,6.52,2.95,8.69c1.97,2.17,4.61,3.25,7.93,3.25s5.9-1.09,7.87-3.28Z"/>
    <path class="cls-30" d="m241.55,465.89c3.24,1.72,5.74,4.13,7.52,7.23,1.77,3.1,2.66,6.68,2.66,10.74s-.89,7.59-2.66,10.71c-1.78,3.12-4.29,5.54-7.55,7.26-3.26,1.72-7.03,2.57-11.32,2.57h-15.39v-41.08h15.39c4.33,0,8.11.86,11.35,2.58Zm-3.16,26.74c2.11-2.07,3.16-4.99,3.16-8.78s-1.05-6.73-3.16-8.84c-2.11-2.11-5.05-3.16-8.84-3.16h-4.74v23.88h4.74c3.78,0,6.73-1.03,8.84-3.1Z"/>
    <path class="cls-47" d="m266.71,471.34v8.31h13.4v7.73h-13.4v9.01h15.16v8.02h-25.17v-41.08h25.17v8.02h-15.16Z"/>
    <path class="cls-62" d="m296.53,502.12c-3.22-1.79-5.77-4.3-7.67-7.52-1.89-3.22-2.84-6.84-2.84-10.85s.95-7.63,2.84-10.83c1.89-3.2,4.45-5.7,7.67-7.49,3.22-1.79,6.76-2.69,10.62-2.69,4.9,0,9.28,1.44,13.15,4.33.81.61,1.57,1.29,2.26,2.03,3.74,4.05,5.61,8.93,5.61,14.64,0,4.02-.94,7.64-2.81,10.85-1.87,3.22-4.41,5.73-7.61,7.52-3.2,1.79-6.73,2.69-10.59,2.69s-7.4-.9-10.62-2.69Zm18.49-9.72c1.97-2.18,2.95-5.07,2.95-8.66s-.99-6.53-2.95-8.69c-1.97-2.17-4.59-3.25-7.87-3.25s-5.96,1.07-7.93,3.22c-1.97,2.15-2.95,5.05-2.95,8.72s.98,6.52,2.95,8.69c1.97,2.17,4.61,3.25,7.93,3.25s5.9-1.09,7.87-3.28Z"/>
    <path class="cls-1" d="m343.09,496.68h13.11v7.72h-23.12v-41.08h10.01v33.36Z"/>
    <path class="cls-39" d="m369.16,502.12c-3.22-1.79-5.77-4.3-7.67-7.52-1.89-3.22-2.84-6.84-2.84-10.85s.95-7.63,2.84-10.83c1.89-3.2,4.45-5.7,7.67-7.49,3.22-1.79,6.76-2.69,10.62-2.69,4.9,0,9.28,1.44,13.15,4.33.81.61,1.57,1.29,2.26,2.03,3.74,4.05,5.61,8.93,5.61,14.64,0,4.02-.94,7.64-2.81,10.85-1.87,3.22-4.41,5.73-7.61,7.52-3.2,1.79-6.73,2.69-10.59,2.69s-7.4-.9-10.62-2.69Zm18.49-9.72c1.97-2.18,2.95-5.07,2.95-8.66s-.99-6.53-2.95-8.69c-1.97-2.17-4.59-3.25-7.87-3.25s-5.96,1.07-7.93,3.22c-1.97,2.15-2.95,5.05-2.95,8.72s.98,6.52,2.95,8.69c1.97,2.17,4.61,3.25,7.93,3.25s5.9-1.09,7.87-3.28Z"/>
    <path class="cls-19" d="m432.98,476.31c-.74-1.37-1.8-2.41-3.19-3.13-1.39-.72-3.01-1.08-4.89-1.08-3.24,0-5.83,1.06-7.78,3.19-1.95,2.13-2.93,4.97-2.93,8.52,0,3.78,1.02,6.74,3.07,8.87,2.05,2.13,4.87,3.19,8.46,3.19,2.46,0,4.54-.62,6.23-1.87,1.7-1.25,2.93-3.04,3.72-5.38h-12.7v-7.37h21.77v9.31c-.74,2.5-2,4.82-3.78,6.96-1.78,2.15-4.03,3.88-6.76,5.21-2.73,1.33-5.81,1.99-9.25,1.99-4.06,0-7.68-.89-10.86-2.66-3.18-1.78-5.66-4.24-7.43-7.4-1.78-3.16-2.66-6.77-2.66-10.83s.89-7.68,2.66-10.86c1.77-3.18,4.24-5.66,7.4-7.43,3.16-1.77,6.77-2.66,10.83-2.66,4.92,0,9.06,1.19,12.44,3.57,3.37,2.38,5.61,5.68,6.7,9.89h-11.06Z"/>
    <path class="cls-18" d="m484.89,463.32l-14.22,27.51v13.58h-10.01v-13.58l-14.22-27.51h11.35l7.96,17.21,7.9-17.21h11.24Z"/>
  </g>
  <rect class="cls-29" x="510.48" y="360.99" width="6.36" height="6.36"/>
  <rect class="cls-29" x="498.05" y="327.3" width="6.36" height="6.36" transform="translate(-86.88 451.22) rotate(-45)"/>
  <polygon class="cls-29" points="496.99 341.31 492.5 345.81 486.73 339.11 491.23 334.61 496.99 341.31"/>
  <rect class="cls-29" x="504.33" y="318.11" width="6.36" height="8.5" transform="translate(-79.3 453.28) rotate(-45)"/>
  <rect class="cls-29" x="516.57" y="312.36" width="9.42" height="9.42" transform="translate(-71.53 461.47) rotate(-45)"/>
  <rect class="cls-29" x="530.06" y="318.66" width="8.73" height="8.73" transform="translate(-71.88 472.5) rotate(-45)"/>
  <rect class="cls-29" x="546.26" y="336.3" width="8.73" height="8.73" transform="translate(-79.61 489.12) rotate(-45)"/>
  <rect class="cls-29" x="516.4" y="365.83" width="8.73" height="8.73" transform="translate(-109.24 476.67) rotate(-45)"/>
  <rect class="cls-29" x="533.44" y="354.72" width="11.59" height="8.73" transform="translate(-95.97 486.47) rotate(-45)"/>
  <rect class="cls-29" x="507.68" y="362.35" width="8.73" height="8.73" transform="translate(145.32 878.76) rotate(-90)"/>
  <polygon class="cls-29" points="522.12 374.61 491.23 343.73 525.84 307.67 556.73 338.56 522.12 374.61"/>
  <g>
    <g>
      <g>
        <circle class="cls-45" cx="547.06" cy="353.72" r="1.63"/>
        <circle class="cls-38" cx="531.82" cy="368.95" r="1.63"/>
        <circle class="cls-59" cx="534.87" cy="365.91" r="1.63"/>
        <circle class="cls-63" cx="537.92" cy="362.86" r="1.63"/>
        <circle class="cls-42" cx="540.97" cy="359.81" r="1.63"/>
        <circle class="cls-55" cx="544.01" cy="356.77" r="1.63"/>
      </g>
      <g>
        <circle class="cls-40" cx="531.86" cy="317.94" r="1.63"/>
        <circle class="cls-9" cx="547.1" cy="333.17" r="1.63"/>
        <circle class="cls-58" cx="544.05" cy="330.12" r="1.63"/>
        <circle class="cls-51" cx="541" cy="327.08" r="1.63"/>
        <circle class="cls-60" cx="537.95" cy="324.03" r="1.63"/>
        <circle class="cls-13" cx="534.91" cy="320.98" r="1.63"/>
      </g>
      <g>
        <circle class="cls-12" cx="496.04" cy="353.76" r="1.63"/>
        <circle class="cls-48" cx="511.28" cy="368.99" r="1.63"/>
        <circle class="cls-57" cx="508.23" cy="365.94" r="1.63"/>
        <circle class="cls-4" cx="505.18" cy="362.9" r="1.63"/>
        <circle class="cls-35" cx="502.13" cy="359.85" r="1.63"/>
        <circle class="cls-50" cx="499.09" cy="356.8" r="1.63"/>
      </g>
      <g>
        <circle class="cls-27" cx="511.28" cy="317.94" r="1.63"/>
        <circle class="cls-28" cx="496.04" cy="333.17" r="1.63"/>
        <circle class="cls-36" cx="499.09" cy="330.12" r="1.63"/>
        <circle class="cls-22" cx="502.13" cy="327.08" r="1.63"/>
        <circle class="cls-64" cx="505.18" cy="324.03" r="1.63"/>
        <circle class="cls-43" cx="508.23" cy="320.98" r="1.63"/>
      </g>
      <path class="cls-10" d="m505.97,349.77c-.05-.48.1-.97.47-1.34.64-.64,1.67-.64,2.31,0,.64.64.64,1.67,0,2.31-.36.36-.86.52-1.34.47l-4.01,4.01,6.9,6.9,5.99-5.99-4.2-4.2,3.42-3.42c-.13-.53.01-1.12.43-1.53.64-.64,1.67-.64,2.31,0,.64.64.64,1.67,0,2.31-.31.31-.71.47-1.11.48l-2.18,2.18,4.2,4.2-7.42,7.42,6.6,6.6c1.78,1.78,4.68,1.78,6.46,0l17.45-17.45,6.01-6.01c1.78-1.78,1.78-4.68,0-6.46l-6.72-6.72-7.42,7.42-4.2-4.2-2.35,2.35c0,.42-.16.84-.48,1.16-.64.64-1.67.64-2.31,0s-.64-1.67,0-2.31c.41-.41.98-.55,1.5-.44l3.63-3.63,4.2,4.2,5.99-5.99-7.45-7.45-4.01,4.01c.05.48-.1.97-.47,1.34-.64.64-1.67.64-2.31,0-.64-.64-.64-1.67,0-2.31.36-.36.86-.52,1.34-.47l4.01-4.01-6.42-6.42c-1.78-1.78-4.68-1.78-6.46,0l-7.39,7.39,3.87,3.87c.48-.05.97.1,1.34.47.64.64.64,1.67,0,2.31s-1.67.64-2.31,0c-.36-.36-.52-.86-.47-1.34l-3.87-3.87-7.45,7.45,5.99,5.99,4.2-4.2,3.7,3.7c.48-.05.97.1,1.34.47.64.64.64,1.67,0,2.31s-1.67.64-2.31,0c-.36-.36-.52-.86-.47-1.34l-2.26-2.26-4.2,4.2-7.42-7.42-5.75,5.75c-1.78,1.78-1.78,4.68,0,6.46l7.09,7.09,4.01-4.01Zm20.35-4.61c.64-.64,1.67-.64,2.31,0,.36.36.52.86.47,1.34l2.26,2.26,4.2-4.2,7.42,7.42-1.44,1.44-5.99-5.99-4.2,4.2-3.7-3.7c-.48.05-.97-.1-1.34-.47-.64-.64-.64-1.67,0-2.31Zm3.24,10.41c.37.37.52.86.47,1.34l4.01,4.01-1.44,1.44-4.01-4.01c-.48.05-.97-.1-1.34-.47-.64-.64-.64-1.67,0-2.31.64-.64,1.67-.64,2.31,0Z"/>
    </g>
    <g>
      <rect class="cls-29" x="520.55" y="361.3" width="2.04" height="10.34"/>
      <circle class="cls-29" cx="521.57" cy="361.3" r="1.62"/>
    </g>
    <g>
      <rect class="cls-29" x="520.55" y="315.43" width="2.04" height="10.34"/>
      <circle class="cls-29" cx="521.57" cy="325.77" r="1.62"/>
    </g>
    <g>
      <rect class="cls-29" x="539.45" y="342.42" width="10.34" height="2.04"/>
      <circle class="cls-29" cx="539.46" cy="343.44" r="1.62"/>
    </g>
    <g>
      <rect class="cls-29" x="493.11" y="342.42" width="10.34" height="2.04"/>
      <circle class="cls-29" cx="503.45" cy="343.44" r="1.62"/>
    </g>
    <g>
      <rect class="cls-29" x="520.55" y="337.48" width="2.04" height="10.34"/>
      <circle class="cls-29" cx="521.57" cy="347.82" r="1.62"/>
      <circle class="cls-29" cx="521.57" cy="337.48" r="1.62"/>
    </g>
  </g>
  <g>
    <path class="cls-24" d="m454.07,240.1c30.34-18.6,135.3-60.01,179,29.94,20.65,42.5-89.21,49.9-57.52,114.67,20.11,41.09-11.32,46.62-14.26,108.9-2.94,62.28,76.36,127.32,76.36,127.32,0,0-20.34-23.56-26-48.85-6.43-28.73,2.55-47.7,17.28-60.66,11.69-10.29,27.17-15.18,42.72-14.24,4.4.27,8.84.22,13.32-.24,14.36-1.47,21.54-13.15,15.45-26.13-4.24-9.04-4.73-16.27,3.66-23.16,1.89-1.55,3.09-6.41,2.05-8.41-1.21-2.32-5.12-4.06-8.08-4.47-.61-.08-1.21-.16-1.82-.23-1.52-.17-1.49-2.4.04-2.54h0c6.75-.62,12.17-5.39,13.09-11.59.24-1.59-.63-4-1.84-5.04-7.75-6.6-7.21-12.13,1.8-16.93,3.37-1.79,6.83-3.6,9.74-6.02,4.93-4.64,2.78-11.26.52-13.12-3.9-3.81-8.19-7.24-12.38-10.74-10.4-8.71-17.97-19.38-20.64-32.73-1.62-8.08-1.7-16.47-2.39-24.72-1.65-20.03-9.77-41.99-18.38-58.96-4.2-8.27-14.28-25.99-34.84-36.25-3.38-1.68-6.05-2.92-9.69-4.05-113.9-35.38-167.18,28.26-167.18,28.26Z"/>
    <path class="cls-29" d="m666.35,345.11c1.98-.2,3.8-1.2,5.05-2.75s2.04-3.16,2.7-5.09c.61-1.79,1.23-3.69,1.3-5.93.06-2.08-1.3-3.96-3.3-4.53-10.4-2.99-20.54-2.21-30.33,2.8-2.87,1.47-3.46,5.4-1.03,7.52,6.94,6.06,16.12,8.93,25.61,7.97Z"/>
  </g>
  <path class="cls-66" d="m454.07,240.1s75.02-65.42,173.92-11.49c10.59,5.77,19.43,14.38,24.97,25.1,11.22,21.73,7.04,44.16,7.04,44.16l-31.29,26.78c-8.99,7.11-14.45,20.14-13.52,32.51l1.74,23.12-31.04,91.52s-6.71,88.28,46.23,144.31"/>
  <polyline class="cls-66" points="701.64 485.49 585.89 471.8 565.71 463.68"/>
  <polyline class="cls-66" points="625.12 297.87 660 297.87 682.32 292.81"/>
  <line class="cls-66" x1="569.04" y1="360.99" x2="616.93" y2="380.29"/>
</svg>